<svg width="2142" height="680" viewBox="0 0 2142 680" fill="none" xmlns="http://www.w3.org/2000/svg">
<path d="M43.6731 545V202.19H144.168C187.685 202.19 220.087 209.078 241.376 222.853C262.978 236.314 273.778 256.977 273.778 284.84C273.778 305.503 268.143 322.408 256.873 335.557C245.602 348.393 229.479 357.159 208.504 361.855V362.794C235.741 367.177 256.09 376.569 269.552 390.97C283.014 405.371 289.745 424.938 289.745 449.671C289.745 481.917 277.848 505.866 254.055 521.52C230.262 537.173 194.102 545 145.577 545H43.6731ZM145.577 511.189C182.206 511.189 208.973 506.023 225.879 495.692C242.785 485.047 251.237 468.455 251.237 445.914C251.237 423.373 242.628 406.937 225.409 396.606C208.504 385.961 181.893 380.639 145.577 380.639H62.4572V347.767H145.577C176.571 347.767 199.425 343.227 214.139 334.148C228.853 324.756 236.21 310.355 236.21 290.945C236.21 271.848 229.01 257.916 214.608 249.15C200.207 240.384 177.197 236.001 145.577 236.001H81.2413V511.189H145.577ZM718.232 545V412.572L582.986 202.19H626.19L737.485 378.291H738.425L849.251 202.19H892.924L757.209 412.572V545H718.232ZM940.688 545V202.19H983.421L1168.44 485.36H1169.38V202.19H1206.95V545H1164.69L979.195 261.83H978.256V545H940.688ZM1294.27 545V202.19H1512.16V236.001H1331.83V347.767H1502.77V381.109H1331.83V511.189H1512.16V545H1294.27ZM1685.97 549.696C1665.31 549.696 1644.49 547.505 1623.51 543.122C1602.85 538.739 1585.32 532.79 1570.92 525.277L1581.25 491.465C1590.95 496.161 1601.75 500.388 1613.65 504.145C1625.86 507.588 1638.38 510.406 1651.22 512.597C1664.05 514.476 1676.42 515.415 1688.32 515.415C1715.87 515.415 1737 510.093 1751.71 499.449C1766.74 488.804 1774.25 473.777 1774.25 454.367C1774.25 443.409 1771.91 434.33 1767.21 427.13C1762.83 419.616 1756.41 413.511 1747.96 408.815C1739.5 403.806 1729.33 399.423 1717.43 395.666C1705.85 391.91 1693.17 388.153 1679.39 384.396C1664.37 380.326 1650.44 375.786 1637.6 370.777C1624.76 365.455 1613.34 359.194 1603.32 351.993C1593.61 344.48 1585.94 335.557 1580.31 325.226C1574.99 314.582 1572.33 301.902 1572.33 287.188C1572.33 258.386 1583.13 236.314 1604.73 220.974C1626.33 205.321 1656.7 197.494 1695.83 197.494C1715.87 197.494 1735.75 199.529 1755.47 203.599C1775.51 207.356 1792.26 212.521 1805.72 219.096L1795.39 252.907C1782.24 246.646 1766.74 241.637 1748.9 237.88C1731.05 233.81 1713.21 231.775 1695.36 231.775C1668.12 231.775 1647.31 236.628 1632.9 246.333C1618.5 256.038 1611.3 269.813 1611.3 287.658C1611.3 297.989 1613.49 306.598 1617.88 313.486C1622.26 320.373 1628.36 326.165 1636.19 330.861C1644.33 335.557 1653.72 339.784 1664.37 343.54C1675.32 346.984 1687.53 350.584 1701 354.341C1716.65 358.724 1731.21 363.577 1744.67 368.899C1758.44 373.908 1770.34 380.169 1780.36 387.683C1790.69 395.197 1798.83 404.432 1804.78 415.39C1810.73 426.034 1813.7 439.183 1813.7 454.836C1813.7 484.578 1802.43 507.901 1779.89 524.807C1757.66 541.4 1726.35 549.696 1685.97 549.696ZM1964.64 545V236.471H1841.61V202.19H2126.65V236.471H2003.62V545H1964.64Z" fill="#0105FF"/>
<path d="M383 545C344.34 545 313 513.66 313 475V244.931C313 225.946 328.39 210.556 347.375 210.556H369.806C376.402 210.556 381.75 205.208 381.75 198.611C381.75 175.391 388.435 155.651 401.805 139.391C415.176 123.13 431.407 115 450.5 115C469.593 115 485.824 123.13 499.195 139.391C512.565 155.651 519.25 175.391 519.25 198.611C519.25 205.208 524.598 210.556 531.194 210.556H553.625C572.61 210.556 588 225.946 588 244.931V475C588 513.66 556.66 545 518 545H383ZM342 461C342 491.376 366.624 516 397 516H504C534.376 516 559 491.376 559 461V378V254.319C559 243.343 550.102 234.444 539.125 234.444C528.148 234.444 519.25 243.343 519.25 254.319V271.679C519.25 277.103 514.853 281.5 509.429 281.5C504.004 281.5 499.607 277.103 499.607 271.679V257.972C499.607 244.978 489.073 234.444 476.079 234.444H424.921C411.927 234.444 401.393 244.978 401.393 257.972V271.679C401.393 277.103 396.996 281.5 391.571 281.5C386.147 281.5 381.75 277.103 381.75 271.679V254.319C381.75 243.343 372.852 234.444 361.875 234.444C350.898 234.444 342 243.343 342 254.319V378V461ZM401.393 198.611C401.393 205.208 406.741 210.556 413.337 210.556H487.663C494.259 210.556 499.607 205.208 499.607 198.611C499.607 181.793 494.88 167.635 485.425 156.137C475.97 144.638 464.329 138.889 450.5 138.889C436.671 138.889 425.03 144.638 415.575 156.137C406.12 167.635 401.393 181.793 401.393 198.611Z" fill="#0105FF"/>
</svg>
